<svg id="visual" viewBox="0 0 900 600" width="900" height="600" xmlns="http://www.w3.org/2000/svg" xmlns:xlink="http://www.w3.org/1999/xlink" version="1.1"><g stroke-width="1" stroke-linejoin="bevel"><path d="M478 294L501.3 300L510.3 249Z" fill="#121820" stroke="#121820"></path><path d="M501.3 300L544.6 270L510.3 249Z" fill="#131d29" stroke="#131d29"></path><path d="M510.3 249L432 258L478 294Z" fill="#1c3d6d" stroke="#1c3d6d"></path><path d="M501.3 300L550.6 310L544.6 270Z" fill="#121820" stroke="#121820"></path><path d="M544.6 270L544.6 199L510.3 249Z" fill="#234681" stroke="#234681"></path><path d="M510.3 249L471.3 157L432 258Z" fill="#1f4177" stroke="#1f4177"></path><path d="M635.9 214L544.6 199L544.6 270Z" fill="#14263c" stroke="#14263c"></path><path d="M505.3 384L579.6 326L550.6 310Z" fill="#1f4177" stroke="#1f4177"></path><path d="M550.6 310L579.6 326L544.6 270Z" fill="#1c3d6d" stroke="#1c3d6d"></path><path d="M505.3 384L550.6 310L501.3 300Z" fill="#1c3d6d" stroke="#1c3d6d"></path><path d="M432 258L409.7 331L478 294Z" fill="#1c3d6d" stroke="#1c3d6d"></path><path d="M478 294L505.3 384L501.3 300Z" fill="#173459" stroke="#173459"></path><path d="M461 396L505.3 384L478 294Z" fill="#234681" stroke="#234681"></path><path d="M544.6 199L471.3 157L510.3 249Z" fill="#131d29" stroke="#131d29"></path><path d="M532.3 165L471.3 157L544.6 199Z" fill="#193863" stroke="#193863"></path><path d="M392.7 159L373.7 257L432 258Z" fill="#162f4f" stroke="#162f4f"></path><path d="M432 258L373.7 257L409.7 331Z" fill="#142132" stroke="#142132"></path><path d="M409.7 331L461 396L478 294Z" fill="#152a45" stroke="#152a45"></path><path d="M620.9 390L620.9 304L579.6 326Z" fill="#142132" stroke="#142132"></path><path d="M579.6 326L620.9 304L544.6 270Z" fill="#162f4f" stroke="#162f4f"></path><path d="M544.6 199L656.9 148L532.3 165Z" fill="#173459" stroke="#173459"></path><path d="M409.7 331L443 400L461 396Z" fill="#234681" stroke="#234681"></path><path d="M427.7 422L443 400L409.7 331Z" fill="#162f4f" stroke="#162f4f"></path><path d="M471.3 157L418 156L432 258Z" fill="#131d29" stroke="#131d29"></path><path d="M532.3 165L462 132L471.3 157Z" fill="#1f4177" stroke="#1f4177"></path><path d="M471.3 157L462 132L418 156Z" fill="#1f4177" stroke="#1f4177"></path><path d="M330.4 220L349.7 257L373.7 257Z" fill="#193863" stroke="#193863"></path><path d="M373.7 257L349.7 257L409.7 331Z" fill="#1f4177" stroke="#1f4177"></path><path d="M620.9 304L635.9 214L544.6 270Z" fill="#121820" stroke="#121820"></path><path d="M362.7 150L392.7 159L453 66Z" fill="#162f4f" stroke="#162f4f"></path><path d="M418 156L392.7 159L432 258Z" fill="#131d29" stroke="#131d29"></path><path d="M461 396L516.3 429L505.3 384Z" fill="#142132" stroke="#142132"></path><path d="M505.3 384L597.6 396L579.6 326Z" fill="#173459" stroke="#173459"></path><path d="M427.7 422L516.3 429L461 396Z" fill="#14263c" stroke="#14263c"></path><path d="M516.3 429L597.6 396L505.3 384Z" fill="#1c3d6d" stroke="#1c3d6d"></path><path d="M320.4 382L427.7 422L409.7 331Z" fill="#234681" stroke="#234681"></path><path d="M443 400L427.7 422L461 396Z" fill="#1c3d6d" stroke="#1c3d6d"></path><path d="M622.9 426L620.9 390L597.6 396Z" fill="#131d29" stroke="#131d29"></path><path d="M597.6 396L620.9 390L579.6 326Z" fill="#173459" stroke="#173459"></path><path d="M620.9 304L676.1 293L635.9 214Z" fill="#173459" stroke="#173459"></path><path d="M392.7 159L330.4 220L373.7 257Z" fill="#162f4f" stroke="#162f4f"></path><path d="M294.1 349L320.4 382L409.7 331Z" fill="#14263c" stroke="#14263c"></path><path d="M362.7 150L362.4 154L392.7 159Z" fill="#173459" stroke="#173459"></path><path d="M392.7 159L362.4 154L330.4 220Z" fill="#173459" stroke="#173459"></path><path d="M453 66L392.7 159L418 156Z" fill="#121820" stroke="#121820"></path><path d="M362.4 154L319.4 160L330.4 220Z" fill="#152a45" stroke="#152a45"></path><path d="M709.1 360L676.1 293L620.9 304Z" fill="#162f4f" stroke="#162f4f"></path><path d="M656.9 148L560.6 98L532.3 165Z" fill="#14263c" stroke="#14263c"></path><path d="M532.3 165L560.6 98L462 132Z" fill="#162f4f" stroke="#162f4f"></path><path d="M462 132L453 66L418 156Z" fill="#162f4f" stroke="#162f4f"></path><path d="M278.1 221L303.4 264L330.4 220Z" fill="#234681" stroke="#234681"></path><path d="M330.4 220L303.4 264L349.7 257Z" fill="#234681" stroke="#234681"></path><path d="M575.6 471L622.9 426L597.6 396Z" fill="#1c3d6d" stroke="#1c3d6d"></path><path d="M620.9 390L709.1 360L620.9 304Z" fill="#162f4f" stroke="#162f4f"></path><path d="M701.1 184L656.9 148L635.9 214Z" fill="#173459" stroke="#173459"></path><path d="M635.9 214L656.9 148L544.6 199Z" fill="#14263c" stroke="#14263c"></path><path d="M288.4 323L409.7 331L349.7 257Z" fill="#1c3d6d" stroke="#1c3d6d"></path><path d="M275.1 148L319.4 160L278.4 67Z" fill="#121820" stroke="#121820"></path><path d="M362.7 150L319.4 160L362.4 154Z" fill="#131d29" stroke="#131d29"></path><path d="M534.3 47L453 66L462 132Z" fill="#234681" stroke="#234681"></path><path d="M229.1 294L288.4 323L303.4 264Z" fill="#14263c" stroke="#14263c"></path><path d="M303.4 264L288.4 323L349.7 257Z" fill="#131d29" stroke="#131d29"></path><path d="M516.3 429L575.6 471L597.6 396Z" fill="#173459" stroke="#173459"></path><path d="M526.3 490L575.6 471L516.3 429Z" fill="#152a45" stroke="#152a45"></path><path d="M288.4 323L294.1 349L409.7 331Z" fill="#152a45" stroke="#152a45"></path><path d="M360.7 494L430 479L427.7 422Z" fill="#234681" stroke="#234681"></path><path d="M427.7 422L430 479L516.3 429Z" fill="#193863" stroke="#193863"></path><path d="M480.3 499L526.3 490L516.3 429Z" fill="#131d29" stroke="#131d29"></path><path d="M716.1 209L701.1 184L635.9 214Z" fill="#142132" stroke="#142132"></path><path d="M319.4 160L278.1 221L330.4 220Z" fill="#152a45" stroke="#152a45"></path><path d="M430 479L480.3 499L516.3 429Z" fill="#121820" stroke="#121820"></path><path d="M656.9 148L630.9 90L560.6 98Z" fill="#131d29" stroke="#131d29"></path><path d="M560.6 98L534.3 47L462 132Z" fill="#14263c" stroke="#14263c"></path><path d="M663.9 114L630.9 90L656.9 148Z" fill="#142132" stroke="#142132"></path><path d="M701.1 184L693.1 158L656.9 148Z" fill="#234681" stroke="#234681"></path><path d="M577.6 28L534.3 47L560.6 98Z" fill="#152a45" stroke="#152a45"></path><path d="M676.1 293L716.1 209L635.9 214Z" fill="#152a45" stroke="#152a45"></path><path d="M701.1 184L793.4 205L693.1 158Z" fill="#1f4177" stroke="#1f4177"></path><path d="M771.4 274L716.1 209L676.1 293Z" fill="#14263c" stroke="#14263c"></path><path d="M671.9 439L620.9 390L622.9 426Z" fill="#1f4177" stroke="#1f4177"></path><path d="M671.9 439L709.1 360L620.9 390Z" fill="#193863" stroke="#193863"></path><path d="M693.1 158L663.9 114L656.9 148Z" fill="#162f4f" stroke="#162f4f"></path><path d="M707.1 439L671.9 439L707.1 512Z" fill="#14263c" stroke="#14263c"></path><path d="M575.6 471L671.9 439L622.9 426Z" fill="#152a45" stroke="#152a45"></path><path d="M693.1 158L672.1 99L663.9 114Z" fill="#193863" stroke="#193863"></path><path d="M663.9 114L672.1 99L630.9 90Z" fill="#14263c" stroke="#14263c"></path><path d="M630.9 90L577.6 28L560.6 98Z" fill="#152a45" stroke="#152a45"></path><path d="M738.4 81L672.1 99L693.1 158Z" fill="#14263c" stroke="#14263c"></path><path d="M278.4 67L319.4 160L362.7 150Z" fill="#1f4177" stroke="#1f4177"></path><path d="M319.4 160L275.1 148L278.1 221Z" fill="#152a45" stroke="#152a45"></path><path d="M606.9 0L577.6 28L630.9 90Z" fill="#1f4177" stroke="#1f4177"></path><path d="M514.3 0L424.7 21L453 66Z" fill="#121820" stroke="#121820"></path><path d="M408.7 538L458 529L430 479Z" fill="#162f4f" stroke="#162f4f"></path><path d="M430 479L458 529L480.3 499Z" fill="#1c3d6d" stroke="#1c3d6d"></path><path d="M480.3 499L517.3 600L526.3 490Z" fill="#14263c" stroke="#14263c"></path><path d="M526.3 490L597.6 565L575.6 471Z" fill="#142132" stroke="#142132"></path><path d="M338.4 482L360.7 494L427.7 422Z" fill="#162f4f" stroke="#162f4f"></path><path d="M338.4 482L427.7 422L320.4 382Z" fill="#173459" stroke="#173459"></path><path d="M514.3 0L453 66L534.3 47Z" fill="#1f4177" stroke="#1f4177"></path><path d="M453 66L424.7 21L362.7 150Z" fill="#142132" stroke="#142132"></path><path d="M248.1 409L338.4 482L320.4 382Z" fill="#1f4177" stroke="#1f4177"></path><path d="M338.4 482L361.4 499L360.7 494Z" fill="#1f4177" stroke="#1f4177"></path><path d="M360.7 494L361.4 499L430 479Z" fill="#131d29" stroke="#131d29"></path><path d="M288.4 323L234.9 340L294.1 349Z" fill="#1c3d6d" stroke="#1c3d6d"></path><path d="M294.1 349L248.1 409L320.4 382Z" fill="#173459" stroke="#173459"></path><path d="M278.1 221L229.1 294L303.4 264Z" fill="#131d29" stroke="#131d29"></path><path d="M178.9 267L229.1 294L278.1 221Z" fill="#152a45" stroke="#152a45"></path><path d="M671.9 439L707.1 439L709.1 360Z" fill="#173459" stroke="#173459"></path><path d="M779.4 315L771.4 274L676.1 293Z" fill="#14263c" stroke="#14263c"></path><path d="M707.1 512L671.9 439L639.9 568Z" fill="#14263c" stroke="#14263c"></path><path d="M229.1 294L234.9 340L288.4 323Z" fill="#121820" stroke="#121820"></path><path d="M561.6 0L514.3 0L534.3 47Z" fill="#1f4177" stroke="#1f4177"></path><path d="M779.4 315L676.1 293L709.1 360Z" fill="#142132" stroke="#142132"></path><path d="M716.1 209L793.4 205L701.1 184Z" fill="#162f4f" stroke="#162f4f"></path><path d="M707.1 439L738.4 405L709.1 360Z" fill="#1c3d6d" stroke="#1c3d6d"></path><path d="M212.9 108L233.1 179L275.1 148Z" fill="#1f4177" stroke="#1f4177"></path><path d="M275.1 148L233.1 179L278.1 221Z" fill="#173459" stroke="#173459"></path><path d="M361.4 499L408.7 538L430 479Z" fill="#234681" stroke="#234681"></path><path d="M467 600L408.7 538L382.7 600Z" fill="#1c3d6d" stroke="#1c3d6d"></path><path d="M577.6 28L561.6 0L534.3 47Z" fill="#162f4f" stroke="#162f4f"></path><path d="M606.9 0L561.6 0L577.6 28Z" fill="#1f4177" stroke="#1f4177"></path><path d="M234.9 340L248.1 409L294.1 349Z" fill="#14263c" stroke="#14263c"></path><path d="M514.3 0L417 0L424.7 21Z" fill="#142132" stroke="#142132"></path><path d="M424.7 21L359.4 0L362.7 150Z" fill="#1c3d6d" stroke="#1c3d6d"></path><path d="M795.4 367L779.4 315L709.1 360Z" fill="#162f4f" stroke="#162f4f"></path><path d="M417 0L391.7 0L424.7 21Z" fill="#121820" stroke="#121820"></path><path d="M686.1 0L606.9 0L630.9 90Z" fill="#142132" stroke="#142132"></path><path d="M234.9 340L224.9 398L248.1 409Z" fill="#121820" stroke="#121820"></path><path d="M248.1 409L222.1 482L338.4 482Z" fill="#1f4177" stroke="#1f4177"></path><path d="M382.7 600L408.7 538L335.4 600Z" fill="#121820" stroke="#121820"></path><path d="M190.9 384L224.9 398L234.9 340Z" fill="#142132" stroke="#142132"></path><path d="M144.6 295L234.9 340L229.1 294Z" fill="#152a45" stroke="#152a45"></path><path d="M359.4 0L278.4 67L362.7 150Z" fill="#234681" stroke="#234681"></path><path d="M391.7 0L359.4 0L424.7 21Z" fill="#1c3d6d" stroke="#1c3d6d"></path><path d="M804.7 221L793.4 205L771.4 274Z" fill="#152a45" stroke="#152a45"></path><path d="M771.4 274L793.4 205L716.1 209Z" fill="#121820" stroke="#121820"></path><path d="M672.1 99L686.1 0L630.9 90Z" fill="#162f4f" stroke="#162f4f"></path><path d="M793.4 205L738.4 81L693.1 158Z" fill="#131d29" stroke="#131d29"></path><path d="M517.3 600L480.3 499L458 529Z" fill="#152a45" stroke="#152a45"></path><path d="M517.3 600L597.6 565L526.3 490Z" fill="#173459" stroke="#173459"></path><path d="M798.7 400L795.4 367L738.4 405Z" fill="#1c3d6d" stroke="#1c3d6d"></path><path d="M825.7 278L804.7 221L771.4 274Z" fill="#193863" stroke="#193863"></path><path d="M813.4 19L751.4 0L738.4 81Z" fill="#1f4177" stroke="#1f4177"></path><path d="M775.4 437L738.4 405L707.1 439Z" fill="#14263c" stroke="#14263c"></path><path d="M738.4 405L795.4 367L709.1 360Z" fill="#131d29" stroke="#131d29"></path><path d="M779.4 315L825.7 278L771.4 274Z" fill="#162f4f" stroke="#162f4f"></path><path d="M168.9 201L178.9 267L233.1 179Z" fill="#152a45" stroke="#152a45"></path><path d="M233.1 179L178.9 267L278.1 221Z" fill="#162f4f" stroke="#162f4f"></path><path d="M639.9 568L671.9 439L575.6 471Z" fill="#193863" stroke="#193863"></path><path d="M707.1 512L775.4 437L707.1 439Z" fill="#1f4177" stroke="#1f4177"></path><path d="M144.6 295L190.9 384L234.9 340Z" fill="#14263c" stroke="#14263c"></path><path d="M224.9 398L222.1 482L248.1 409Z" fill="#1c3d6d" stroke="#1c3d6d"></path><path d="M250.1 34L212.9 108L278.4 67Z" fill="#1f4177" stroke="#1f4177"></path><path d="M278.4 67L212.9 108L275.1 148Z" fill="#234681" stroke="#234681"></path><path d="M467 600L517.3 600L458 529Z" fill="#131d29" stroke="#131d29"></path><path d="M775.4 437L798.7 400L738.4 405Z" fill="#162f4f" stroke="#162f4f"></path><path d="M795.4 367L825.7 278L779.4 315Z" fill="#142132" stroke="#142132"></path><path d="M597.6 565L639.9 568L575.6 471Z" fill="#121820" stroke="#121820"></path><path d="M594.6 600L639.9 568L597.6 565Z" fill="#1f4177" stroke="#1f4177"></path><path d="M408.7 538L361.4 499L335.4 600Z" fill="#1f4177" stroke="#1f4177"></path><path d="M408.7 538L467 600L458 529Z" fill="#131d29" stroke="#131d29"></path><path d="M826.7 385L825.7 278L795.4 367Z" fill="#131d29" stroke="#131d29"></path><path d="M738.4 81L686.1 0L672.1 99Z" fill="#142132" stroke="#142132"></path><path d="M159.6 180L168.9 201L233.1 179Z" fill="#1c3d6d" stroke="#1c3d6d"></path><path d="M178.9 267L144.6 295L229.1 294Z" fill="#121820" stroke="#121820"></path><path d="M517.3 600L594.6 600L597.6 565Z" fill="#234681" stroke="#234681"></path><path d="M288.1 0L250.1 34L278.4 67Z" fill="#121820" stroke="#121820"></path><path d="M359.4 0L288.1 0L278.4 67Z" fill="#131d29" stroke="#131d29"></path><path d="M205.9 488L222.1 482L224.9 398Z" fill="#173459" stroke="#173459"></path><path d="M335.4 600L361.4 499L298.1 581Z" fill="#152a45" stroke="#152a45"></path><path d="M212.9 108L159.6 180L233.1 179Z" fill="#173459" stroke="#173459"></path><path d="M101.6 266L144.6 295L178.9 267Z" fill="#193863" stroke="#193863"></path><path d="M122.6 160L159.6 180L212.9 108Z" fill="#152a45" stroke="#152a45"></path><path d="M872.7 454L826.7 385L798.7 400Z" fill="#162f4f" stroke="#162f4f"></path><path d="M798.7 400L826.7 385L795.4 367Z" fill="#121820" stroke="#121820"></path><path d="M872.7 454L798.7 400L775.4 437Z" fill="#193863" stroke="#193863"></path><path d="M101.6 266L178.9 267L168.9 201Z" fill="#152a45" stroke="#152a45"></path><path d="M157.6 476L205.9 488L224.9 398Z" fill="#234681" stroke="#234681"></path><path d="M900 254L852.7 248L900 315Z" fill="#193863" stroke="#193863"></path><path d="M825.7 278L852.7 248L804.7 221Z" fill="#173459" stroke="#173459"></path><path d="M804.7 221L900 178L793.4 205Z" fill="#173459" stroke="#173459"></path><path d="M738.4 81L751.4 0L686.1 0Z" fill="#173459" stroke="#173459"></path><path d="M639.9 568L730.1 547L707.1 512Z" fill="#142132" stroke="#142132"></path><path d="M707.1 512L752.4 538L775.4 437Z" fill="#142132" stroke="#142132"></path><path d="M678.1 600L730.1 547L639.9 568Z" fill="#14263c" stroke="#14263c"></path><path d="M157.6 476L224.9 398L190.9 384Z" fill="#193863" stroke="#193863"></path><path d="M298.1 581L361.4 499L338.4 482Z" fill="#173459" stroke="#173459"></path><path d="M298.1 581L338.4 482L222.1 482Z" fill="#173459" stroke="#173459"></path><path d="M281.1 600L298.1 581L222.1 482Z" fill="#131d29" stroke="#131d29"></path><path d="M730.1 547L752.4 538L707.1 512Z" fill="#173459" stroke="#173459"></path><path d="M144.6 295L146.6 399L190.9 384Z" fill="#173459" stroke="#173459"></path><path d="M594.6 600L675.9 600L639.9 568Z" fill="#162f4f" stroke="#162f4f"></path><path d="M787.4 600L807.7 549L752.4 538Z" fill="#1f4177" stroke="#1f4177"></path><path d="M813.4 19L738.4 81L845.7 64Z" fill="#162f4f" stroke="#162f4f"></path><path d="M675.9 600L678.1 600L639.9 568Z" fill="#14263c" stroke="#14263c"></path><path d="M118.6 66L122.6 160L212.9 108Z" fill="#1f4177" stroke="#1f4177"></path><path d="M159.6 180L122.6 160L168.9 201Z" fill="#1c3d6d" stroke="#1c3d6d"></path><path d="M144.6 295L116.6 387L146.6 399Z" fill="#152a45" stroke="#152a45"></path><path d="M205.9 488L281.1 600L222.1 482Z" fill="#121820" stroke="#121820"></path><path d="M298.1 581L281.1 600L335.4 600Z" fill="#14263c" stroke="#14263c"></path><path d="M122.6 160L101.6 266L168.9 201Z" fill="#173459" stroke="#173459"></path><path d="M146.6 399L157.6 476L190.9 384Z" fill="#131d29" stroke="#131d29"></path><path d="M205.9 488L171.9 573L281.1 600Z" fill="#152a45" stroke="#152a45"></path><path d="M82.3 458L157.6 476L146.6 399Z" fill="#1f4177" stroke="#1f4177"></path><path d="M96.3 297L116.6 387L144.6 295Z" fill="#14263c" stroke="#14263c"></path><path d="M101.6 266L96.3 297L144.6 295Z" fill="#234681" stroke="#234681"></path><path d="M288.1 0L197.9 0L250.1 34Z" fill="#193863" stroke="#193863"></path><path d="M250.1 34L160.9 35L212.9 108Z" fill="#14263c" stroke="#14263c"></path><path d="M900 315L852.7 248L825.7 278Z" fill="#142132" stroke="#142132"></path><path d="M873.7 91L845.7 64L793.4 205Z" fill="#131d29" stroke="#131d29"></path><path d="M900 315L825.7 278L900 342Z" fill="#173459" stroke="#173459"></path><path d="M900 342L825.7 278L826.7 385Z" fill="#142132" stroke="#142132"></path><path d="M845.7 64L738.4 81L793.4 205Z" fill="#173459" stroke="#173459"></path><path d="M900 178L804.7 221L852.7 248Z" fill="#1f4177" stroke="#1f4177"></path><path d="M900 450L900 342L826.7 385Z" fill="#162f4f" stroke="#162f4f"></path><path d="M197.9 0L160.9 35L250.1 34Z" fill="#121820" stroke="#121820"></path><path d="M900 254L900 178L852.7 248Z" fill="#142132" stroke="#142132"></path><path d="M787.4 600L752.4 538L730.1 547Z" fill="#1c3d6d" stroke="#1c3d6d"></path><path d="M752.4 538L807.7 549L775.4 437Z" fill="#131d29" stroke="#131d29"></path><path d="M807.7 549L872.7 454L775.4 437Z" fill="#121820" stroke="#121820"></path><path d="M900 143L873.7 91L793.4 205Z" fill="#162f4f" stroke="#162f4f"></path><path d="M845.7 64L820.7 0L813.4 19Z" fill="#1f4177" stroke="#1f4177"></path><path d="M900 0L820.7 0L845.7 64Z" fill="#152a45" stroke="#152a45"></path><path d="M813.4 19L820.7 0L751.4 0Z" fill="#142132" stroke="#142132"></path><path d="M900 178L900 143L793.4 205Z" fill="#131d29" stroke="#131d29"></path><path d="M100.3 53L118.6 66L160.9 35Z" fill="#162f4f" stroke="#162f4f"></path><path d="M160.9 35L118.6 66L212.9 108Z" fill="#193863" stroke="#193863"></path><path d="M122.6 160L33.3 228L101.6 266Z" fill="#1c3d6d" stroke="#1c3d6d"></path><path d="M101.6 266L33.3 228L96.3 297Z" fill="#131d29" stroke="#131d29"></path><path d="M118.6 66L82.3 146L122.6 160Z" fill="#142132" stroke="#142132"></path><path d="M82.3 458L155.6 544L157.6 476Z" fill="#173459" stroke="#173459"></path><path d="M157.6 476L155.6 544L205.9 488Z" fill="#1f4177" stroke="#1f4177"></path><path d="M678.1 600L787.4 600L730.1 547Z" fill="#121820" stroke="#121820"></path><path d="M900 480L900 450L872.7 454Z" fill="#121820" stroke="#121820"></path><path d="M900 480L872.7 454L807.7 549Z" fill="#234681" stroke="#234681"></path><path d="M872.7 454L900 450L826.7 385Z" fill="#193863" stroke="#193863"></path><path d="M155.6 544L171.9 573L205.9 488Z" fill="#121820" stroke="#121820"></path><path d="M900 143L900 78L873.7 91Z" fill="#234681" stroke="#234681"></path><path d="M873.7 91L900 78L845.7 64Z" fill="#142132" stroke="#142132"></path><path d="M117.6 0L100.3 53L160.9 35Z" fill="#142132" stroke="#142132"></path><path d="M118.6 66L64.3 122L82.3 146Z" fill="#14263c" stroke="#14263c"></path><path d="M116.6 387L82.3 458L146.6 399Z" fill="#162f4f" stroke="#162f4f"></path><path d="M104.6 600L172.9 600L171.9 573Z" fill="#14263c" stroke="#14263c"></path><path d="M0 375L82.3 458L116.6 387Z" fill="#193863" stroke="#193863"></path><path d="M24.3 322L116.6 387L96.3 297Z" fill="#152a45" stroke="#152a45"></path><path d="M900 566L900 480L807.7 549Z" fill="#1c3d6d" stroke="#1c3d6d"></path><path d="M100.3 53L64.3 122L118.6 66Z" fill="#1f4177" stroke="#1f4177"></path><path d="M82.3 146L33.3 228L122.6 160Z" fill="#121820" stroke="#121820"></path><path d="M104.6 600L171.9 573L155.6 544Z" fill="#1f4177" stroke="#1f4177"></path><path d="M171.9 573L172.9 600L281.1 600Z" fill="#152a45" stroke="#152a45"></path><path d="M0 157L33.3 228L82.3 146Z" fill="#162f4f" stroke="#162f4f"></path><path d="M197.9 0L117.6 0L160.9 35Z" fill="#131d29" stroke="#131d29"></path><path d="M0 85L0 157L64.3 122Z" fill="#234681" stroke="#234681"></path><path d="M787.4 600L831.7 600L807.7 549Z" fill="#162f4f" stroke="#162f4f"></path><path d="M0 266L24.3 322L96.3 297Z" fill="#14263c" stroke="#14263c"></path><path d="M900 78L900 0L845.7 64Z" fill="#193863" stroke="#193863"></path><path d="M0 451L53.3 478L82.3 458Z" fill="#173459" stroke="#173459"></path><path d="M82.3 458L53.3 478L155.6 544Z" fill="#1c3d6d" stroke="#1c3d6d"></path><path d="M0 225L0 266L33.3 228Z" fill="#14263c" stroke="#14263c"></path><path d="M33.3 228L0 266L96.3 297Z" fill="#152a45" stroke="#152a45"></path><path d="M24.3 322L0 375L116.6 387Z" fill="#193863" stroke="#193863"></path><path d="M0 225L33.3 228L0 157Z" fill="#234681" stroke="#234681"></path><path d="M0 157L82.3 146L64.3 122Z" fill="#173459" stroke="#173459"></path><path d="M831.7 600L900 566L807.7 549Z" fill="#1f4177" stroke="#1f4177"></path><path d="M0 266L0 375L24.3 322Z" fill="#121820" stroke="#121820"></path><path d="M0 85L64.3 122L100.3 53Z" fill="#14263c" stroke="#14263c"></path><path d="M37.3 576L155.6 544L53.3 478Z" fill="#121820" stroke="#121820"></path><path d="M37.3 576L104.6 600L155.6 544Z" fill="#234681" stroke="#234681"></path><path d="M831.7 600L900 600L900 566Z" fill="#1f4177" stroke="#1f4177"></path><path d="M0 375L0 451L82.3 458Z" fill="#1c3d6d" stroke="#1c3d6d"></path><path d="M0 28L0 85L100.3 53Z" fill="#121820" stroke="#121820"></path><path d="M117.6 0L37.3 0L100.3 53Z" fill="#142132" stroke="#142132"></path><path d="M0 451L0 470L53.3 478Z" fill="#1f4177" stroke="#1f4177"></path><path d="M0 527L37.3 576L53.3 478Z" fill="#173459" stroke="#173459"></path><path d="M37.3 0L0 28L100.3 53Z" fill="#152a45" stroke="#152a45"></path><path d="M37.3 576L48.3 600L104.6 600Z" fill="#193863" stroke="#193863"></path><path d="M0 470L0 527L53.3 478Z" fill="#14263c" stroke="#14263c"></path><path d="M37.3 576L0 600L48.3 600Z" fill="#162f4f" stroke="#162f4f"></path><path d="M37.3 0L0 0L0 28Z" fill="#152a45" stroke="#152a45"></path><path d="M0 527L0 600L37.3 576Z" fill="#162f4f" stroke="#162f4f"></path></g></svg>